<?xml version="1.0" encoding="UTF-8"?>
<svg id="Layer_1" data-name="Layer 1" xmlns="http://www.w3.org/2000/svg" viewBox="0 0 562.27 700">
  <defs>
    <style>
      .cls-1 {
        fill: #fff;
      }

      .cls-2 {
        fill: #3d348b;
      }
    </style>
  </defs>
  <path class="cls-2" d="m.5,0h561.76v418.44c0,74.45-29.57,145.85-82.22,198.49l-.85.85c-109.62,109.62-287.36,109.62-396.98,0h0C29.47,565.04-.11,493.46,0,418.87L.5,0Z"/>
  <polygon class="cls-1" points="27.65 330.84 27.6 369.16 281.13 369.16 281.13 330.84 27.65 330.84"/>
  <rect class="cls-1" x="281.13" y="34.3" width="253.58" height="296.54"/>
  <path class="cls-1" d="m281.13,369.16v296.53c64.67-.1,129.31-24.81,178.65-74.15l.77-.77c47.48-47.48,74.16-111.89,74.16-179.04v-42.57h-253.58Z"/>
  <polygon class="cls-2" points="281.13 34.3 28 34.3 27.65 330.84 281.13 330.84 281.13 34.3"/>
  <path class="cls-2" d="m27.6,369.16l-.05,42.96c-.1,67.28,26.58,131.84,74.16,179.42h0c49.54,49.54,114.49,74.25,179.42,74.15v-296.53H27.6Z"/>
  <polygon class="cls-2" points="363.29 32.46 363.29 156.22 408.6 110.91 452.56 154.87 452.56 32.46 363.29 32.46"/>
  <path class="cls-2" d="m438.75,444.62l-29.92,39.37v.64l47.56-6.31v21.41l-47.56-5.67v.64l30.24,37.78-19.85,11.34-18.9-44.08h-.63l-20.47,44.42-17.95-11.34,29.92-38.44v-.62l-46.61,5.98v-21.41l46.3,5.98v-.62l-29.61-38.44,19.21-11,19.53,43.78h.63l19.21-44.11,18.9,10.72Z"/>
  <g>
    <path class="cls-1" d="m74.36,258.46l20.3-167.18h42.99l20.3,167.18h-33.44l-2.15-30.81h-12.66l-1.67,30.81h-33.67Zm37.26-66.64h9.08l-2.39-52.78h-4.06l-2.63,52.78Z"/>
    <path class="cls-1" d="m167.5,258.46V91.28h35.59v136.37h31.29v30.81h-66.87Z"/>
  </g>
  <path class="cls-1" d="m154.37,584.11c-7.64,0-14.65-1.87-21.02-5.61-6.37-3.74-11.43-8.75-15.16-15.05-3.74-6.29-5.61-13.33-5.61-21.13v-19.11h35.59v20.3c0,1.59.6,3.07,1.79,4.42,1.2,1.35,2.66,2.03,4.42,2.03s3.26-.68,4.54-2.03c1.27-1.35,1.91-2.82,1.91-4.42,0-1.43-.16-2.66-.48-3.7-.32-1.03-1.04-2.42-2.15-4.17l-28.66-46.81c-2.07-3.5-4.46-7.2-7.17-11.1-2.71-3.9-5.02-7.8-6.92-11.7-1.91-3.9-2.87-7.6-2.87-11.11v-.96c0-7.8,1.87-14.84,5.61-21.13,3.74-6.29,8.79-11.3,15.16-15.04,6.37-3.74,13.38-5.61,21.02-5.61s14.85,1.87,21.14,5.61c6.29,3.74,11.3,8.75,15.05,15.04,3.74,6.29,5.61,13.34,5.61,21.13v16.96h-35.35v-18.39c0-1.75-.64-3.26-1.91-4.54-1.28-1.27-2.79-1.91-4.54-1.91-1.59,0-3.03.64-4.3,1.91-1.28,1.28-1.91,2.79-1.91,4.54,0,1.12.2,2.03.6,2.75.4.72.99,1.8,1.79,3.23l29.62,47.05c3.66,5.89,7.24,11.74,10.75,17.55,3.5,5.81,5.25,11.9,5.25,18.27v.95c0,7.8-1.87,14.85-5.61,21.13-3.74,6.3-8.76,11.31-15.05,15.05-6.29,3.74-13.34,5.61-21.14,5.61Z"/>
</svg>